<mxfile host="65bd71144e">
    <diagram id="sUUaPduqyuZYLTc3TDkt" name="Page-1">
        <mxGraphModel dx="947" dy="699" grid="0" gridSize="10" guides="1" tooltips="1" connect="1" arrows="1" fold="1" page="1" pageScale="1" pageWidth="850" pageHeight="1100" background="#FFF8F8" math="0" shadow="0">
            <root>
                <mxCell id="0"/>
                <mxCell id="1" parent="0"/>
                <mxCell id="15" value="&lt;span style=&quot;background-color: rgb(246, 238, 238);&quot;&gt;Factory Method&lt;/span&gt;" style="shape=umlFrame;whiteSpace=wrap;html=1;width=120;height=30;boundedLbl=1;verticalAlign=middle;align=left;spacingLeft=5;swimlaneLine=0;fontColor=#333333;shadow=0;fillColor=#f5f5f5;strokeColor=#666666;" vertex="1" parent="1">
                    <mxGeometry x="10" y="10" width="830" height="560" as="geometry"/>
                </mxCell>
                <mxCell id="5" value="&lt;span style=&quot;&quot;&gt;&lt;font color=&quot;#130606&quot;&gt;ProductA&lt;/font&gt;&lt;/span&gt;" style="html=1;shadow=0;swimlaneLine=0;labelBackgroundColor=none;fillColor=#d5e8d4;strokeColor=#82b366;" vertex="1" parent="1">
                    <mxGeometry x="605" y="409" width="110" height="50" as="geometry"/>
                </mxCell>
                <mxCell id="8" value="«interface»&lt;br&gt;&lt;b&gt;IProduct&lt;/b&gt;" style="html=1;shadow=0;swimlaneLine=0;fillColor=#f8cecc;strokeColor=#b85450;" vertex="1" parent="1">
                    <mxGeometry x="605" y="286" width="110" height="50" as="geometry"/>
                </mxCell>
                <mxCell id="11" value="&lt;font color=&quot;#050505&quot;&gt;ProductB&lt;/font&gt;" style="html=1;shadow=0;swimlaneLine=0;fillColor=#ffe6cc;strokeColor=#d79b00;" vertex="1" parent="1">
                    <mxGeometry x="605" y="163" width="110" height="50" as="geometry"/>
                </mxCell>
                <object label="" Text="implement" id="12">
                    <mxCell style="endArrow=block;dashed=1;endFill=0;endSize=12;html=1;entryX=0.5;entryY=1;entryDx=0;entryDy=0;exitX=0.5;exitY=0;exitDx=0;exitDy=0;shadow=0;swimlaneLine=0;fontColor=#050505;fillColor=#d5e8d4;strokeColor=#82b366;" edge="1" parent="1" source="5" target="8">
                        <mxGeometry width="160" relative="1" as="geometry">
                            <mxPoint x="600" y="245" as="sourcePoint"/>
                            <mxPoint x="760" y="205" as="targetPoint"/>
                        </mxGeometry>
                    </mxCell>
                </object>
                <mxCell id="13" value="" style="endArrow=block;dashed=1;endFill=0;endSize=12;html=1;entryX=0.5;entryY=0;entryDx=0;entryDy=0;shadow=0;swimlaneLine=0;fontColor=#050505;fillColor=#ffe6cc;strokeColor=#d79b00;" edge="1" parent="1" source="11" target="8">
                    <mxGeometry width="160" relative="1" as="geometry">
                        <mxPoint x="697" y="99" as="sourcePoint"/>
                        <mxPoint x="680" y="249" as="targetPoint"/>
                    </mxGeometry>
                </mxCell>
                <mxCell id="25" value="AbstractCreator" style="swimlane;fontStyle=3;align=center;verticalAlign=top;childLayout=stackLayout;horizontal=1;startSize=26;horizontalStack=0;resizeParent=1;resizeParentMax=0;resizeLast=0;collapsible=1;marginBottom=0;shadow=0;swimlaneLine=0;fillColor=#bac8d3;strokeColor=#23445d;" vertex="1" parent="1">
                    <mxGeometry x="175" y="240" width="190" height="86" as="geometry">
                        <mxRectangle x="110" y="90" width="130" height="30" as="alternateBounds"/>
                    </mxGeometry>
                </mxCell>
                <mxCell id="26" value="..." style="text;strokeColor=none;fillColor=none;align=left;verticalAlign=top;spacingLeft=4;spacingRight=4;overflow=hidden;rotatable=0;points=[[0,0.5],[1,0.5]];portConstraint=eastwest;shadow=0;swimlaneLine=0;fontColor=#050505;" vertex="1" parent="25">
                    <mxGeometry y="26" width="190" height="26" as="geometry"/>
                </mxCell>
                <mxCell id="27" value="" style="line;strokeWidth=1;fillColor=none;align=left;verticalAlign=middle;spacingTop=-1;spacingLeft=3;spacingRight=3;rotatable=0;labelPosition=right;points=[];portConstraint=eastwest;strokeColor=inherit;shadow=0;swimlaneLine=0;fontColor=#050505;" vertex="1" parent="25">
                    <mxGeometry y="52" width="190" height="8" as="geometry"/>
                </mxCell>
                <mxCell id="28" value="+ CreationMethod(): IProduct" style="text;strokeColor=none;fillColor=none;align=left;verticalAlign=top;spacingLeft=4;spacingRight=4;overflow=hidden;rotatable=0;points=[[0,0.5],[1,0.5]];portConstraint=eastwest;fontStyle=2;shadow=0;swimlaneLine=0;fontColor=#050505;" vertex="1" parent="25">
                    <mxGeometry y="60" width="190" height="26" as="geometry"/>
                </mxCell>
                <mxCell id="17" value="CreatorA" style="swimlane;fontStyle=1;align=center;verticalAlign=top;childLayout=stackLayout;horizontal=1;startSize=26;horizontalStack=0;resizeParent=1;resizeParentMax=0;resizeLast=0;collapsible=1;marginBottom=0;shadow=0;swimlaneLine=0;fillColor=#d5e8d4;strokeColor=#82b366;fontColor=#0d0808;" vertex="1" parent="1">
                    <mxGeometry x="120" y="429" width="210" height="86" as="geometry">
                        <mxRectangle x="50" y="206" width="90" height="30" as="alternateBounds"/>
                    </mxGeometry>
                </mxCell>
                <mxCell id="18" value="..." style="text;strokeColor=none;fillColor=none;align=left;verticalAlign=top;spacingLeft=4;spacingRight=4;overflow=hidden;rotatable=0;points=[[0,0.5],[1,0.5]];portConstraint=eastwest;shadow=0;swimlaneLine=0;fontColor=#050505;" vertex="1" parent="17">
                    <mxGeometry y="26" width="210" height="26" as="geometry"/>
                </mxCell>
                <mxCell id="19" value="" style="line;strokeWidth=1;fillColor=none;align=left;verticalAlign=middle;spacingTop=-1;spacingLeft=3;spacingRight=3;rotatable=0;labelPosition=right;points=[];portConstraint=eastwest;strokeColor=inherit;shadow=0;swimlaneLine=0;fontColor=#050505;" vertex="1" parent="17">
                    <mxGeometry y="52" width="210" height="8" as="geometry"/>
                </mxCell>
                <mxCell id="20" value="+ CreationMethod(): IProduct" style="text;strokeColor=none;fillColor=none;align=left;verticalAlign=top;spacingLeft=4;spacingRight=4;overflow=hidden;rotatable=0;points=[[0,0.5],[1,0.5]];portConstraint=eastwest;shadow=0;swimlaneLine=0;fontColor=#050505;" vertex="1" parent="17">
                    <mxGeometry y="60" width="210" height="26" as="geometry"/>
                </mxCell>
                <mxCell id="21" value="CreatorB" style="swimlane;fontStyle=1;align=center;verticalAlign=top;childLayout=stackLayout;horizontal=1;startSize=26;horizontalStack=0;resizeParent=1;resizeParentMax=0;resizeLast=0;collapsible=1;marginBottom=0;shadow=0;swimlaneLine=0;fillColor=#ffe6cc;strokeColor=#d79b00;fontColor=#291919;" vertex="1" parent="1">
                    <mxGeometry x="120" y="77" width="200" height="86" as="geometry">
                        <mxRectangle x="210" y="206" width="90" height="30" as="alternateBounds"/>
                    </mxGeometry>
                </mxCell>
                <mxCell id="22" value="..." style="text;strokeColor=none;fillColor=none;align=left;verticalAlign=top;spacingLeft=4;spacingRight=4;overflow=hidden;rotatable=0;points=[[0,0.5],[1,0.5]];portConstraint=eastwest;shadow=0;swimlaneLine=0;fontColor=#050505;" vertex="1" parent="21">
                    <mxGeometry y="26" width="200" height="26" as="geometry"/>
                </mxCell>
                <mxCell id="23" value="" style="line;strokeWidth=1;fillColor=none;align=left;verticalAlign=middle;spacingTop=-1;spacingLeft=3;spacingRight=3;rotatable=0;labelPosition=right;points=[];portConstraint=eastwest;strokeColor=inherit;shadow=0;swimlaneLine=0;fontColor=#050505;" vertex="1" parent="21">
                    <mxGeometry y="52" width="200" height="8" as="geometry"/>
                </mxCell>
                <mxCell id="24" value="+ CreationMethod(): IProduct" style="text;strokeColor=none;fillColor=none;align=left;verticalAlign=top;spacingLeft=4;spacingRight=4;overflow=hidden;rotatable=0;points=[[0,0.5],[1,0.5]];portConstraint=eastwest;shadow=0;swimlaneLine=0;fontColor=#050505;" vertex="1" parent="21">
                    <mxGeometry y="60" width="200" height="26" as="geometry"/>
                </mxCell>
                <mxCell id="29" value="Use" style="endArrow=open;endSize=12;dashed=1;html=1;entryX=0;entryY=0.5;entryDx=0;entryDy=0;shadow=0;swimlaneLine=0;fontColor=#050505;labelBackgroundColor=none;fillColor=#dae8fc;strokeColor=#6c8ebf;exitX=1;exitY=0.5;exitDx=0;exitDy=0;" edge="1" parent="1" source="28" target="8">
                    <mxGeometry width="160" relative="1" as="geometry">
                        <mxPoint x="330" y="161.5" as="sourcePoint"/>
                        <mxPoint x="490" y="162" as="targetPoint"/>
                        <mxPoint as="offset"/>
                    </mxGeometry>
                </mxCell>
                <mxCell id="30" value="" style="endArrow=block;endSize=16;endFill=0;html=1;exitX=0.5;exitY=0;exitDx=0;exitDy=0;entryX=0.5;entryY=1;entryDx=0;entryDy=0;shadow=0;swimlaneLine=0;fontColor=#050505;fillColor=#d5e8d4;strokeColor=#82b366;labelBackgroundColor=none;" edge="1" parent="1" source="17" target="25">
                    <mxGeometry x="0.0157" y="-13" width="160" relative="1" as="geometry">
                        <mxPoint x="100" y="239" as="sourcePoint"/>
                        <mxPoint x="180" y="149" as="targetPoint"/>
                        <mxPoint as="offset"/>
                    </mxGeometry>
                </mxCell>
                <mxCell id="31" value="" style="endArrow=block;endSize=16;endFill=0;html=1;entryX=0.5;entryY=0;entryDx=0;entryDy=0;exitX=0.534;exitY=1.038;exitDx=0;exitDy=0;exitPerimeter=0;shadow=0;swimlaneLine=0;fontColor=#050505;labelBackgroundColor=none;fillColor=#ffe6cc;strokeColor=#d79b00;" edge="1" parent="1" source="24" target="25">
                    <mxGeometry width="160" relative="1" as="geometry">
                        <mxPoint x="120" y="289" as="sourcePoint"/>
                        <mxPoint x="220" y="149" as="targetPoint"/>
                    </mxGeometry>
                </mxCell>
                <mxCell id="32" value="Use" style="endArrow=open;endSize=12;dashed=1;html=1;entryX=0;entryY=0;entryDx=0;entryDy=0;shadow=0;swimlaneLine=0;fontColor=#050505;fillColor=#ffe6cc;strokeColor=#d79b00;labelBackgroundColor=none;exitX=1;exitY=0.5;exitDx=0;exitDy=0;" edge="1" parent="1" source="24" target="8">
                    <mxGeometry width="160" relative="1" as="geometry">
                        <mxPoint x="330" y="140" as="sourcePoint"/>
                        <mxPoint x="460" y="99" as="targetPoint"/>
                    </mxGeometry>
                </mxCell>
                <mxCell id="33" value="Use" style="endArrow=open;endSize=12;dashed=1;html=1;entryX=0;entryY=1;entryDx=0;entryDy=0;shadow=0;swimlaneLine=0;fontColor=#050505;fillColor=#d5e8d4;strokeColor=#82b366;labelBackgroundColor=none;exitX=1;exitY=0.5;exitDx=0;exitDy=0;" edge="1" parent="1" source="20" target="8">
                    <mxGeometry width="160" relative="1" as="geometry">
                        <mxPoint x="310" y="109" as="sourcePoint"/>
                        <mxPoint x="635" y="308" as="targetPoint"/>
                    </mxGeometry>
                </mxCell>
            </root>
        </mxGraphModel>
    </diagram>
</mxfile>